<svg id="svg" version="1.1" viewBox="0 0 10000 10000" width="10000" height="10000" xmlns="http://www.w3.org/2000/svg"><svg xmlns="http://www.w3.org/2000/svg" viewBox="0 0 300 300" width="10000" height="10000"><defs><clipPath id="clip-1"><rect x="0" y="0" transform="scale(0.14648,0.14648)" width="2048" height="2048" fill="none"/></clipPath></defs><g clip-path="url(#clip-1)" fill="none" fill-rule="nonzero" stroke="none" stroke-width="1" stroke-linecap="butt" stroke-linejoin="miter" stroke-miterlimit="10" stroke-dasharray="" stroke-dashoffset="0" font-family="none" font-weight="none" font-size="none" text-anchor="none" style="mix-blend-mode: normal"><path d="M0,0h300v300h-300z" fill="#2b201d"/><path d="M215.24854,74.80723c1.95703,0.03193 4.19971,0.23379 6.19336,0.33047c5.02588,0.26118 10.05322,0.44297 15.08496,0.54536c7.81934,0.10283 16.27881,-0.46289 24.13037,-0.86426c0.1377,1.04385 0.0835,2.66587 0.08057,3.76274c-6.18604,0.78867 -10.57178,2.08989 -14.47412,7.27764c-5.54736,7.37388 -6.09814,19.99453 -6.21826,28.95732c0.74121,0.0082 1.67139,-0.00483 2.39648,0.03706c4.71387,-0.0353 9.42627,-0.04307 14.14014,-0.02314c2.04639,0.00176 5.51367,-0.11147 7.40918,0.01626c-0.02344,2.44629 -0.0293,4.89287 -0.01904,7.33931c-7.87354,-0.02944 -15.99463,-0.12539 -23.85059,-0.02241l0.08057,39.16553l0.06592,14.34521c0.00732,12.46729 -0.04395,19.73877 4.43701,31.66553c1.02246,1.96875 2.0127,3.93311 3.23584,5.78613c3.06885,4.64795 8.04053,8.8125 13.38281,10.51611c1.00635,0.32373 2.03174,0.58447 3.07031,0.78223c0.83936,0.15967 4.06055,0.47754 4.44727,0.71045c0.19482,0.49658 0.16406,0.59766 0.14648,1.11768c-0.13184,0.58887 -0.2417,2.00537 -0.30908,2.67188c-2.48877,0.28711 -4.99365,0.41016 -7.49854,0.36768c-3.44824,-0.02783 -6.03223,-0.50537 -9.3501,-1.23047c-22.51758,-4.92187 -37.13672,-25.73877 -50.4624,-42.92139c-7.08545,-9.13623 -13.70508,-17.54736 -21.28125,-26.38037c-8.05225,-9.28857 -16.42822,-18.29019 -25.11328,-26.98813c-5.07129,-5.13296 -10.33755,-10.15664 -15.39375,-15.29707c-0.07441,4.28994 -0.1103,8.58062 -0.10796,12.87129c-0.02446,2.77471 -0.13037,5.65503 -0.07852,8.41802c-2.59131,0.03252 -4.86372,0.21738 -7.43965,0.47886c0.09272,-9.37266 1.33843,-26.86787 -5.35371,-33.9457c-4.77349,-5.04873 -11.14482,-4.71724 -17.34844,-4.93535l0.00703,-1.94517c-0.06167,-0.49351 -0.19351,-0.9665 0.0082,-1.39219c0.9123,-0.23599 5.83623,-0.60601 7.11709,-0.675c12.55371,-0.67632 28.30063,-0.65977 39.40122,5.97466c7.15869,4.27866 12.04688,9.22998 17.97217,14.81074c14.2207,13.47451 27.44824,27.96021 39.57715,43.34282c4.23047,5.44482 8.41406,10.92627 12.55225,16.44141c2.12109,2.85352 4.36963,6.1875 6.58008,8.88135c0.00293,-9.8833 -0.05273,-19.7666 -0.16406,-29.6499c-0.12744,-0.88916 -0.10986,-3.15674 -0.11133,-4.10742l0.02051,-7.13877v-21.76289c-8.05811,0.16377 -17.00391,-0.27349 -24.95654,0.09712c-0.01904,-0.01655 -0.04248,-0.02915 -0.05713,-0.04937c-0.52148,-0.7021 -0.18311,-6.14312 -0.16699,-7.34897c8.39795,-0.08291 16.87646,0.12041 25.2627,-0.01699c0.07471,-7.43848 -0.32373,-17.08301 -1.83838,-24.33691c-0.44238,-2.12036 -1.78857,-5.16138 -3.12305,-6.90073c-3.11719,-4.06055 -7.31836,-4.44858 -11.97803,-5.07158z" fill="#e3c070"/><path d="M109.25815,97.4165c2.92339,0.16934 5.84546,0.03794 8.76387,0.16919c4.00752,0.16641 7.82446,0.95054 11.68433,1.97827c3.23291,0.86074 5.80723,2.18145 8.7999,3.49512c5.65122,2.48101 9.59824,5.88193 14.21689,9.85181c5.50635,4.73408 10.50879,9.81855 15.5918,15.02959c6.60352,6.72114 13.0708,13.57456 19.39893,20.55659c9.77197,11.06836 19.1001,22.52051 27.9624,34.32861l10.56445,14.14893c9.55957,12.89648 20.74072,27.85986 38.23682,29.43311c1.46631,0.13184 3.04395,-0.01611 4.51025,-0.15527c-0.13184,0.58887 -0.2417,2.00537 -0.30908,2.67188c-2.48877,0.28711 -4.99365,0.41016 -7.49854,0.36768c-3.44824,-0.02783 -6.03223,-0.50537 -9.3501,-1.23047c-22.51758,-4.92187 -37.13672,-25.73877 -50.4624,-42.92139c-7.08545,-9.13623 -13.70508,-17.54736 -21.28125,-26.38037c-8.05225,-9.28857 -16.42822,-18.29019 -25.11328,-26.98813c-5.07129,-5.13296 -10.33755,-10.15664 -15.39375,-15.29707c-0.07441,4.28994 -0.1103,8.58062 -0.10796,12.87129c-0.02446,2.77471 -0.13037,5.65503 -0.07852,8.41802c-2.59131,0.03252 -4.86372,0.21738 -7.43965,0.47886c0.09272,-9.37266 1.33843,-26.86787 -5.35371,-33.9457c-4.77349,-5.04873 -11.14482,-4.71724 -17.34844,-4.93535z" fill="#b9924c"/><path d="M215.24854,74.80723c1.95703,0.03193 4.19971,0.23379 6.19336,0.33047c5.02588,0.26118 10.05322,0.44297 15.08496,0.54536c7.81934,0.10283 16.27881,-0.46289 24.13037,-0.86426c0.1377,1.04385 0.0835,2.66587 0.08057,3.76274c-6.18604,0.78867 -10.57178,2.08989 -14.47412,7.27764c-5.54736,7.37388 -6.09814,19.99453 -6.21826,28.95732c0.74121,0.0082 1.67139,-0.00483 2.39648,0.03706c4.71387,-0.0353 9.42627,-0.04307 14.14014,-0.02314c2.04639,0.00176 5.51367,-0.11147 7.40918,0.01626c-0.02344,2.44629 -0.0293,4.89287 -0.01904,7.33931c-7.87354,-0.02944 -15.99463,-0.12539 -23.85059,-0.02241l0.08057,39.16553l0.06592,14.34521c0.00732,12.46729 -0.04395,19.73877 4.43701,31.66553c-1.66992,-1.07227 -4.30518,-8.26758 -4.99951,-10.49121c-1.35205,-4.32275 -2.62207,-9.39844 -3.1084,-13.92041c-0.32666,-3.02344 -0.29004,-6.58594 -0.30029,-9.63867l-0.0293,-12.01025l-0.02344,-42.85942c-1.30078,1.2252 -2.58398,2.53271 -3.88623,3.7752c-0.12158,7.55801 0.08057,15.24844 -0.00146,22.81597c-0.03516,3.19893 0.12451,7.0207 -0.0542,10.13936c-0.12744,-0.88916 -0.10986,-3.15674 -0.11133,-4.10742l0.02051,-7.13877v-21.76289c-8.05811,0.16377 -17.00391,-0.27349 -24.95654,0.09712c-0.01904,-0.01655 -0.04248,-0.02915 -0.05713,-0.04937c-0.52148,-0.7021 -0.18311,-6.14312 -0.16699,-7.34897c8.39795,-0.08291 16.87646,0.12041 25.2627,-0.01699c0.07471,-7.43848 -0.32373,-17.08301 -1.83838,-24.33691c-0.44238,-2.12036 -1.78857,-5.16138 -3.12305,-6.90073c-3.11719,-4.06055 -7.31836,-4.44858 -11.97803,-5.07158z" fill="#b9924c"/><path d="M215.24854,74.80723c1.95703,0.03193 4.19971,0.23379 6.19336,0.33047c5.02588,0.26118 10.05322,0.44297 15.08496,0.54536c7.81934,0.10283 16.27881,-0.46289 24.13037,-0.86426c-0.04248,0.43154 -0.03369,0.98672 -0.24902,1.31177c-6.59912,1.60107 -12.86426,1.57251 -18.95801,5.18789c-1.27148,0.75396 -2.63232,1.70142 -3.42627,2.97363c-1.83545,2.94155 -2.02588,28.92231 -1.79736,34.06421l-26.08008,0.14033c-1.05029,1.16514 -2.02441,2.90493 -2.8916,3.7418c-0.01904,-0.01655 -0.04248,-0.02915 -0.05713,-0.04937c-0.52148,-0.7021 -0.18311,-6.14312 -0.16699,-7.34897c8.39795,-0.08291 16.87646,0.12041 25.2627,-0.01699c0.07471,-7.43848 -0.32373,-17.08301 -1.83838,-24.33691c-0.44238,-2.12036 -1.78857,-5.16138 -3.12305,-6.90073c-3.11719,-4.06055 -7.31836,-4.44858 -11.97803,-5.07158z" fill="#e3c070"/><path d="M242.44189,114.85356c4.71387,-0.0353 9.42627,-0.04307 14.14014,-0.02314c2.04639,0.00176 5.51367,-0.11147 7.40918,0.01626c-1.02393,1.15518 -2.12695,2.32192 -3.16846,3.48018c-7.22461,0.41748 -17.08008,0.09023 -24.48633,0.01963c1.11768,-1.09629 2.39941,-2.4208 3.60645,-3.38262c0.92725,-0.00557 1.57764,-0.02153 2.49902,-0.1103z" fill="#e3c070"/><path d="M125.87124,209.26172c-3.79512,-0.03223 -7.86226,-0.00586 -11.63042,-0.25342c-8.6291,-0.56689 -17.354,-2.50635 -25.40273,-5.625c-15.76978,-6.11133 -29.2689,-18.46582 -35.91372,-34.14551c-6.81401,-16.11621 -6.5666,-34.25566 -0.07485,-50.43838c14.05737,-35.0417 54.76553,-50.25234 90.22412,-45.84858c6.18809,0.76846 12.33311,2.16782 18.38291,3.66826c4.70801,1.16763 9.375,2.73354 14.21338,3.28667c1.51904,0.17695 3.18311,-0.0063 4.58057,-0.64878c1.96289,-0.95391 2.89014,-2.0584 3.64893,-4.00151l3.01611,0.05215c-0.09814,8.56318 0.00293,17.36689 0.05566,25.9377l0.04834,6.84023c0.00732,0.88359 0.07471,3.04043 -0.07031,3.83013c-0.38086,0.24302 -0.94629,0.18413 -1.42236,0.1897c-0.92578,0.01641 -1.71533,0.01333 -2.63965,-0.02446c-1.98193,-9.69902 -7.02539,-16.96626 -15.271,-22.40845c-13.42383,-8.83228 -29.82832,-11.90933 -45.53936,-8.5418c-14.78774,3.03252 -27.73945,11.87344 -35.95078,24.54023c-17.42065,26.56816 -14.71479,69.03809 13.37813,88.18506c8.50957,5.80078 16.81069,7.49561 26.93789,7.83545c-0.01025,1.11182 0.01099,2.39209 -0.11836,3.48193c-0.10708,1.33887 -0.29575,2.74951 -0.45249,4.08838z" fill="#e3c070"/><path d="M126.32373,205.17334c-8.57827,0.12744 -16.86563,-0.94482 -24.96768,-3.84521c-15.08291,-5.27783 -27.40928,-16.40039 -34.2041,-30.86279c-7.34062,-15.5874 -7.79692,-32.92544 -1.95894,-49.07476c6.17563,-17.08345 19.35,-30.48369 35.6915,-38.14497c18.94453,-8.66675 40.54585,-9.49863 60.10034,-2.31431c1.73877,0.62915 4.42529,1.58672 5.99854,2.48394c3.65039,2.08008 6.77637,3.53599 10.73145,4.96245c5.04492,6.16743 6.76465,16.05322 7.81201,23.72769c-0.92578,0.01641 -1.71533,0.01333 -2.63965,-0.02446c-1.98193,-9.69902 -7.02539,-16.96626 -15.271,-22.40845c-13.42383,-8.83228 -29.82832,-11.90933 -45.53936,-8.5418c-14.78774,3.03252 -27.73945,11.87344 -35.95078,24.54023c-17.42065,26.56816 -14.71479,69.03809 13.37813,88.18506c8.50957,5.80078 16.81069,7.49561 26.93789,7.83545c-0.01025,1.11182 0.01099,2.39209 -0.11836,3.48193z" fill="#b9924c"/><path d="M104.90405,162.75l-0.30322,-0.25195c0.07808,-1.48389 2.70381,-5.37598 3.69917,-6.60059c15.94819,-19.60532 47.87725,-16.02319 64.01543,1.30518c9.15381,9.8291 9.3208,23.25879 8.58545,35.85498l-0.01758,0.30176c-9.0293,6.89355 -26.0127,13.4707 -37.38223,14.65576c0.07119,-1.5 0.18428,-3.14648 0.2042,-4.6377c-0.00132,-1.34766 0.029,-2.69678 0.09111,-4.04443c2.67217,-1.19238 5.75098,-2.75391 7.71387,-4.98926c8.0625,-9.17578 5.33936,-28.86182 -3.47314,-36.62402c-4.92759,-4.34033 -12.7563,-6.43359 -19.29287,-5.88428c-9.31436,0.78223 -15.62651,4.92627 -21.61157,11.81689c-0.85532,-0.28125 -1.43804,-0.44531 -2.22861,-0.90234z" fill="#e3c070"/><path d="M104.90405,162.75c0.75454,-0.20654 1.47642,-1.54248 1.97651,-2.2251c1.06011,-1.46777 2.25059,-2.8374 3.55693,-4.09131c11.45698,-11.05547 28.72764,-12.12334 42.27832,-4.31836c7.11621,4.1001 12.19189,9.73975 14.3877,17.77148c0.49365,1.7959 0.84082,3.62842 1.03711,5.48145c0.25342,2.40527 0.40576,12.45264 -0.93164,14.09912c-5.00537,6.16113 -13.86328,11.76855 -21.73594,13.55566c-0.71235,0.1626 -1.17056,0.28857 -1.76777,0.35449c-0.00132,-1.34766 0.029,-2.69678 0.09111,-4.04443c2.67217,-1.19238 5.75098,-2.75391 7.71387,-4.98926c8.0625,-9.17578 5.33936,-28.86182 -3.47314,-36.62402c-4.92759,-4.34033 -12.7563,-6.43359 -19.29287,-5.88428c-9.31436,0.78223 -15.62651,4.92627 -21.61157,11.81689c-0.85532,-0.28125 -1.43804,-0.44531 -2.22861,-0.90234z" fill="#b9924c"/><path d="M131.96821,156.43799c1.39409,0.1626 2.42856,0.30176 3.80347,0.57861c1.471,0.27979 2.67949,0.57129 4.08281,1.12354c0.1478,15.63574 -0.20713,31.27148 -1.06421,46.88379c-0.29751,6.34863 -0.36284,13.44287 -1.42603,19.65967c-2.5062,14.65283 -18.82163,25.14258 -33.03574,25.19238c-4.88394,0.01758 -9.66797,-1.08398 -12.9564,-4.82959c-1.22021,-1.78271 -2.06499,-4.38135 -1.67168,-6.55078c2.51235,-13.86475 17.34976,-22.27588 30.52075,-22.89404c2.91372,-0.1377 5.5667,0.21533 8.44453,0.57422c2.63643,-4.54395 2.70776,-17.2749 2.91738,-22.85449c0.36079,-12.2915 0.48926,-24.5874 0.38511,-36.8833z" fill="#b9924c"/><path d="M131.96821,156.43799c1.39409,0.1626 2.42856,0.30176 3.80347,0.57861c0.08994,13.62305 -0.19863,27.24609 -0.86514,40.85303c-0.43667,7.4751 -0.35684,19.4458 -6.05698,24.81006c-5.75024,5.41113 -14.11904,9.13477 -21.21226,12.52881c-6.66665,3.15088 -11.11831,4.28027 -16.26519,9.83789c-1.22021,-1.78271 -2.06499,-4.38135 -1.67168,-6.55078c2.51235,-13.86475 17.34976,-22.27588 30.52075,-22.89404c2.91372,-0.1377 5.5667,0.21533 8.44453,0.57422c2.63643,-4.54395 2.70776,-17.2749 2.91738,-22.85449c0.36079,-12.2915 0.48926,-24.5874 0.38511,-36.8833z" fill="#e3c070"/></g></svg></svg>

